<?xml version="1.0" encoding="utf-8"?>
<!-- Generator: Adobe Illustrator 19.0.0, SVG Export Plug-In . SVG Version: 6.00 Build 0)  -->
<svg version="1.1" xmlns="http://www.w3.org/2000/svg" xmlns:xlink="http://www.w3.org/1999/xlink" x="0px" y="0px"
	 viewBox="194 -82.1 1000 520.1" style="enable-background:new 194 -82.1 1000 520.1;" xml:space="preserve">
<style type="text/css">
	.st0{fill:#FFF4DE;}
	.st1{fill:#FFD646;}
	.st2{fill:#FFC74B;}
	.st3{fill:#FFE9B7;}
	.st4{font-family:'Rockwell';}
	.st5{font-size:72px;}
</style>
<g id="Layer_2">
	<rect x="194" y="-82.1" class="st0" width="1000" height="520.1"/>
</g>
<g id="Layer_1">
	<g>
		<g id="Layer_3">
			<path class="st1" d="M847.3-36.5c39.8,109.4-15.8,230-124.2,269.4s-228.4-17.3-268.2-126.7"/>
		</g>
		<g id="Layer_4">
			<path class="st2" d="M824.8-24.6c35,96.2-13.1,201.9-107.4,236.2s-199.1-15.9-234-112.1"/>
		</g>
		<g id="Layer_1_1_">
			<g>
				<g transform="translate(0.000000,511.000000) scale(0.100000,-0.100000)">
					<path class="st3" d="M6518.4,4820.5c-1465.3-533-2026.9-741.1-2037.6-755.4c-22.3-26.8-19.7-60.7,11.6-139.3
						c109.8-277.7,292-546.4,515.2-763.4c592.9-575,1448.3-769.7,2234.9-508.1c558.9,185.7,1016.1,584,1276,1112.5
						c84.8,173.2,124.1,276.8,165.2,439.3c51.8,206.3,62.5,300.9,62.5,542.9c0,279.5-22.3,427.7-103.5,682.2
						c-29.5,92.9-42,111.6-79.5,120.5C8547.1,5555.3,7975.6,5351.8,6518.4,4820.5z M8518.5,5318.7c56.3-183,84.8-421.5,77.7-641.1
						c-15.2-432.2-154.5-825-417-1172.4c-191.1-253.6-436.6-457.2-726.8-600c-557.1-275-1211.6-283.9-1768.8-24.1
						c-433.1,201.8-769.7,527.7-978.6,947.4c-33.9,68.7-61.6,129.5-61.6,135.7c0,6.2,22.3,19.7,49.1,29.5
						c93.8,34.8,82.2,42,144.6-87.5c179.5-374.2,483.9-677.7,870.6-867c451.8-221.4,947.4-255.4,1430.4-97.3
						c718.8,235.7,1223.3,866.1,1301,1628.6c20.5,204.5-2.7,475.9-58.9,678.6l-21.4,77.7l28.6,10.7c75.9,30.4,100.9,39.3,106.3,40.2
						C8497.1,5378.5,8508.7,5351.8,8518.5,5318.7z M8228.3,5225c33.1-112.5,67-330.4,67-433.9v-44.6l-55.4,3.6
						c-31.3,2.7-334.8,16.1-675.9,31.3c-341.1,14.3-621.4,27.7-622.3,28.6c-2.6,2.6,1248.3,459.8,1261.7,460.7
						C8209.6,5271.4,8220.3,5250,8228.3,5225z M6764.8,4707.1c-13.4-86.6-96.4-169.6-182.2-182.2c-58-8.9-132.2,8.9-170.5,39.3
						c-16.9,13.4-32.1,28.6-33.9,33.9c-2.7,7.1,351.8,143.8,380.4,145.5C6767.5,4744.6,6769.3,4735.7,6764.8,4707.1z M7656.8,4624
						c304.5-12.5,570.6-25,592-27.7c44.6-5.4,44.6-6.2,24.1-125c-59.8-346.5-216.1-669.7-434.9-901.8l-57.1-59.8L7316.7,4016
						l-463.4,506.3l31.3,67l31.3,67.9l93.8-5.4C7061.3,4649.1,7352.4,4636.6,7656.8,4624z M6174.6,4513.3
						c-15.2-13.4-221.4-202.7-459.8-420.6c-238.4-217.8-450.9-413.4-474.1-434.9l-40.2-38.4l-58.9,77.7
						c-32.1,43.8-76.8,108.9-99.1,145.5c-40.2,65.2-113.4,213.4-113.4,229.5c0,6.2,1239.3,464.3,1263.4,466.1
						C6197,4539.2,6188.9,4527.6,6174.6,4513.3z M6427.3,4385.6c25-7.2,25.9,36.6-7.2-699.1c-14.3-328.6-26.8-617.9-26.8-642v-42.8
						l-50.9,5.4c-357.2,41.1-720.6,208.1-988.4,452.7l-51.8,48.2l507.1,465.2l507.2,465.2l45.6-24.1
						C6387.2,4401.7,6415.7,4388.3,6427.3,4385.6z M7227.3,3890.1l442.9-483.9l-46.4-37.5C7431,3215,7144.3,3082.9,6889,3031.1
						c-97.3-20.5-331.3-43.8-340.2-33.9c-3.6,2.7,7.2,296.5,22.3,650.9c15.2,355.4,27.7,662.5,27.7,683.1c0,37.5,0,37.5,47.3,50.9
						c25,8,56.3,20.5,68.7,27.7c20.5,11.6,24.1,10.7,45.6-11.6C6772.9,4384.8,6983.6,4156.2,7227.3,3890.1z"/>
				</g>
			</g>
		</g>
	</g>
	<text transform="matrix(1 0 0 1 492.5795 344)" class="st4 st5">QuizForms</text>
</g>
</svg>
