<?xml version="1.0" encoding="utf-8"?>
<!-- Generator: Adobe Illustrator 19.0.0, SVG Export Plug-In . SVG Version: 6.00 Build 0)  -->
<svg version="1.1" id="Layer_1" xmlns="http://www.w3.org/2000/svg" xmlns:xlink="http://www.w3.org/1999/xlink" x="0px" y="0px"
	 viewBox="194 -104 1000 1000" style="enable-background:new 194 -104 1000 1000;" xml:space="preserve">
<style type="text/css">
	.st0{fill:#FFD646;}
	.st1{fill:#FFC74B;}
	.st2{fill:#FFE9B7;}
</style>
<g id="Layer_3">
	<path class="st0" d="M1121.4,50.8c91.1,250.4-36.2,526.6-284.3,616.8s-523-39.7-614.1-290.1"/>
</g>
<g id="Layer_4">
	<path class="st1" d="M1070,78c80.1,220.2-30,462.4-245.9,540.9s-455.9-36.3-535.9-256.6"/>
</g>
<g id="Layer_1_1_">
	<g>
		<g transform="translate(0.000000,511.000000) scale(0.100000,-0.100000)">
			<path class="st2" d="M6739,3103.6C3384,1883.1,2098.1,1406.7,2073.5,1374c-51.1-61.3-45-139,26.6-319
				c251.5-635.8,668.5-1251.2,1179.7-1748c1357.5-1316.6,3316.1-1762.3,5117.3-1163.3C9676.9-1431,10723.7-519.2,11318.7,691.1
				c194.2,396.6,284.2,633.8,378.2,1005.9c118.6,472.3,143.1,689,143.1,1243c0,639.9-51.1,979.3-237.1,1562
				c-67.5,212.6-96.1,255.6-182,276C11384.1,4786.2,10075.6,4320.1,6739,3103.6z M11318.7,4244.4
				c128.8-419.1,194.2-965,177.9-1467.9c-34.8-989.5-353.7-1889.1-954.8-2684.4C10104.3-488.5,9542-954.7,8877.6-1281.8
				c-1275.7-629.7-2774.3-650.1-4050.1-55.2C3835.9-874.9,3065.1-128.7,2586.7,832.2c-77.7,157.4-141.1,296.5-141.1,310.8
				c0,14.3,51.1,45,112.4,67.5c214.7,79.7,188.1,96.1,331.2-200.4C3300.1,153.4,3997.3-541.7,4882.6-975.1
				c1034.5-507,2169.2-584.7,3275.2-222.9c1645.8,539.7,2800.9,1983.2,2978.8,3729.1c47,468.2-6.1,1089.7-134.9,1553.8l-49.1,177.9
				l65.4,24.5c173.8,69.5,231,89.9,243.3,92C11269.6,4381.4,11296.2,4320.1,11318.7,4244.4z M10654.2,4029.8
				c75.7-257.6,153.3-756.5,153.3-993.6V2934l-126.8,8.2c-71.6,6.1-766.7,36.8-1547.7,71.6c-781,32.7-1422.9,63.4-1425,65.4
				c-6,6,2858.3,1052.8,2889,1054.8C10611.3,4136.1,10635.8,4087,10654.2,4029.8z M7303.3,2844c-30.7-198.3-220.8-388.4-417.1-417.1
				c-132.9-20.4-302.6,20.4-390.5,90c-38.8,30.7-73.6,65.4-77.7,77.7c-6.1,16.3,805.5,329.2,870.9,333.2
				C7309.4,2929.8,7313.5,2909.4,7303.3,2844z M9345.7,2653.8c697.2-28.6,1306.4-57.2,1355.5-63.4c102.2-12.3,102.2-14.3,55.2-286.2
				c-137-793.3-494.8-1533.4-995.7-2064.9l-130.8-137L8566.8,1261.5L7505.7,2420.8l71.6,153.3l71.6,155.4l214.7-12.3
				C7982.1,2711.1,8648.6,2682.5,9345.7,2653.8z M5951.9,2400.3c-34.8-30.7-507-464.1-1052.9-963
				c-545.9-498.8-1032.5-946.6-1085.6-995.7l-92-87.9l-134.9,177.9c-73.6,100.2-175.8,249.4-226.9,333.2
				c-92,149.2-259.7,488.6-259.7,525.4c0,14.3,2837.7,1063.1,2892.9,1067.2C6003,2459.6,5984.6,2433,5951.9,2400.3z M6530.5,2107.9
				c57.3-16.4,59.3,83.8-16.4-1600.8c-32.7-752.4-61.3-1414.8-61.3-1470v-98.1l-116.5,12.3c-817.8,94-1649.9,476.4-2263.2,1036.6
				L3954.5,98.3l1161.2,1065.1L6277,2228.6l104.3-55.2C6438.5,2144.8,6503.9,2114.1,6530.5,2107.9z M8362.3,973.3L9376.4-134.8
				l-106.3-85.9c-441.6-351.7-1097.9-654.2-1682.6-772.8c-222.8-47-758.5-100.2-778.9-77.7c-8.2,6.1,16.4,678.8,51.1,1490.4
				c34.8,813.7,63.4,1517,63.4,1564c0,85.9,0,85.9,108.3,116.5c57.3,18.4,128.8,47,157.4,63.4c47,26.6,55.2,24.5,104.3-26.6
				C7321.7,2105.9,7804.2,1582.5,8362.3,973.3z"/>
		</g>
	</g>
</g>
</svg>
